<svg width="16" height="16" viewBox="0 0 16 16" fill="none" xmlns="http://www.w3.org/2000/svg">
<path d="M15.9128 12.056C15.8549 11.9977 15.7805 11.9688 15.6901 11.9688H6.38643C6.296 11.9688 6.22166 11.9977 6.16351 12.056C6.10543 12.1141 6.07645 12.1883 6.07645 12.2788V12.8991C6.07645 12.9894 6.10543 13.0638 6.16351 13.1218C6.22166 13.1799 6.296 13.2091 6.38643 13.2091H15.6901C15.7805 13.2091 15.8549 13.1799 15.9128 13.1218C15.9709 13.0638 16 12.9894 16 12.8991V12.2788C16.0001 12.1883 15.9712 12.1141 15.9128 12.056Z" fill="#B8C7E0"/>
<path d="M1.02712 2.88778C0.962521 2.82318 0.888184 2.79083 0.804206 2.79083C0.720228 2.79083 0.645992 2.82318 0.58143 2.88778L0.0968088 3.37243C0.032247 3.43699 0 3.51123 0 3.59528C0 3.67939 0.032247 3.75359 0.0968088 3.81819L3.90562 7.6269L0.0968088 11.4356C0.032247 11.5002 0 11.5746 0 11.6584C0 11.7426 0.032247 11.8168 0.0968088 11.8814L0.581396 12.3658C0.645992 12.4305 0.720194 12.4627 0.804172 12.4627C0.88815 12.4627 0.962521 12.4304 1.02708 12.3658L5.54329 7.84974C5.60788 7.78518 5.64013 7.7107 5.64013 7.62673C5.64013 7.54278 5.60788 7.46844 5.54329 7.40388L1.02712 2.88778Z" fill="#B8C7E0"/>
</svg>
